<?xml version="1.0" encoding="utf-8"?>
<!-- Svg Vector Icons : http://www.onlinewebfonts.com/icon -->
<!DOCTYPE svg PUBLIC "-//W3C//DTD SVG 1.1//EN" "http://www.w3.org/Graphics/SVG/1.1/DTD/svg11.dtd">
<svg version="1.1" xmlns="http://www.w3.org/2000/svg" xmlns:xlink="http://www.w3.org/1999/xlink" x="0px" y="0px" viewBox="0 0 1000 1000" enable-background="new 0 0 1000 1000" xml:space="preserve">
<metadata> Svg Vector Icons : http://www.onlinewebfonts.com/icon </metadata>
<g><g transform="translate(0.000000,511.000000) scale(0.100000,-0.100000) rotate(0)"><path d="M9145.7,4989.1c-218.4-60.1-346.7-144.3-579.2-378.8c-224.5-226.5-1467-1603.3-3483.2-3860C4468,61,3932.9-532.3,3892.9-570.3c-102.2-92.2-282.6-174.4-444.9-202.4c-118.2-20-166.3-18-372.8,20c-200.4,38.1-288.6,42.1-549.1,34.1c-485-14-711.5-102.2-1002.1-394.8C994.9-1644.6,439.7-2502.3,223.3-3121.6c-162.3-469-164.3-889.8-6-1186.5c130.3-244.5,404.8-428.9,703.5-475C1526-4875.2,2510-4434.3,3464-3644.7c567.2,473,709.5,739.5,709.5,1348.8c2,192.4-10,344.7-32.1,450.9c-60.1,302.6-28.1,553.2,96.2,747.5c66.1,102.2,106.2,140.3,1515.1,1398.9c2224.6,1986.1,3633.5,3258.7,3797.8,3423.1c292.6,296.6,408.9,629.3,320.7,925.9C9789,4927,9464.3,5079.3,9145.7,4989.1z"/></g></g>
</svg>